HIERARCHY
ROOT Hips
{
 OFFSET 0.000000 0.000000 0.000000
 CHANNELS 6 Xposition Yposition Zposition Yrotation Xrotation Zrotation
 JOINT Chest
 {
  OFFSET 0.000000 9.585900 0.002600
  CHANNELS 3 Yrotation Xrotation Zrotation
  JOINT Chest2
  {
   OFFSET 0.000000 9.601200 -0.005300
   CHANNELS 3 Yrotation Xrotation Zrotation
   JOINT Chest3
   {
    OFFSET 0.000000 9.561800 0.000000
    CHANNELS 3 Yrotation Xrotation Zrotation
    JOINT Chest4
    {
     OFFSET 0.000000 9.552100 0.000000
     CHANNELS 3 Yrotation Xrotation Zrotation
     JOINT Neck
     {
      OFFSET 0.000000 14.453000 0.000000
      CHANNELS 3 Yrotation Xrotation Zrotation
      JOINT Head
      {
       OFFSET 0.000000 8.936500 -0.011300
       CHANNELS 3 Yrotation Xrotation Zrotation
       End Site
       {
        OFFSET 0.000000 17.073600 -0.006000
       }
      }
     }
     JOINT RightCollar
     {
      OFFSET -2.921100 9.558500 0.000000
      CHANNELS 3 Yrotation Xrotation Zrotation
      JOINT RightShoulder
      {
       OFFSET -13.519700 0.000000 0.000000
       CHANNELS 3 Yrotation Xrotation Zrotation
       JOINT RightElbow
       {
        OFFSET 0.000000 -29.696600 0.000000
        CHANNELS 3 Yrotation Xrotation Zrotation
        JOINT RightWrist
        {
         OFFSET 0.000000 -24.004700 0.000000
         CHANNELS 3 Yrotation Xrotation Zrotation
         End Site
         {
          OFFSET 0.000000 -17.728500 0.000000
         }
        }
       }
      }
     }
     JOINT LeftCollar
     {
      OFFSET 2.921100 9.558500 0.000000
      CHANNELS 3 Yrotation Xrotation Zrotation
      JOINT LeftShoulder
      {
       OFFSET 13.519700 0.000000 0.000000
       CHANNELS 3 Yrotation Xrotation Zrotation
       JOINT LeftElbow
       {
        OFFSET 0.000000 -29.696600 0.000000
        CHANNELS 3 Yrotation Xrotation Zrotation
        JOINT LeftWrist
        {
         OFFSET 0.000000 -24.004700 0.000000
         CHANNELS 3 Yrotation Xrotation Zrotation
         End Site
         {
          OFFSET 0.000000 -17.728500 0.000000
         }
        }
       }
      }
     }
    }
   }
  }
 }
 JOINT RightHip
 {
  OFFSET -7.771700 -0.012900 -0.001300
  CHANNELS 3 Yrotation Xrotation Zrotation
  JOINT RightKnee
  {
   OFFSET 0.000000 -40.869800 0.001200
   CHANNELS 3 Yrotation Xrotation Zrotation
   JOINT RightAnkle
   {
    OFFSET 0.000000 -39.717900 0.002100
    CHANNELS 3 Yrotation Xrotation Zrotation
    JOINT RightToe
    {
     OFFSET 0.000000 -4.965400 11.033500
     CHANNELS 3 Yrotation Xrotation Zrotation
     End Site
     {
      OFFSET 0.000000 -1.423100 5.872300
     }
    }
   }
  }
 }
 JOINT LeftHip
 {
  OFFSET 7.771700 -0.012900 -0.001300
  CHANNELS 3 Yrotation Xrotation Zrotation
  JOINT LeftKnee
  {
   OFFSET 0.000000 -40.869800 0.001200
   CHANNELS 3 Yrotation Xrotation Zrotation
   JOINT LeftAnkle
   {
    OFFSET 0.000000 -39.717900 0.002100
    CHANNELS 3 Yrotation Xrotation Zrotation
    JOINT LeftToe
    {
     OFFSET 0.000000 -4.965400 11.033500
     CHANNELS 3 Yrotation Xrotation Zrotation
     End Site
     {
      OFFSET 0.000000 -1.423100 5.872300
     }
    }
   }
  }
 }
}
MOTION
Frames: 8
Frame Time: 0.008333
0.000000 85.388000 0.000000 0.000000 -5.767877 0.000000 0.000000 11.653817 0.000000 0.000000 -5.885947 0.000000 0.000000 -0.000000 0.000000 0.000000 -0.000000 0.000000 0.000000 12.528835 0.000000 0.000000 0.711642 0.000000 0.000000 -0.000000 0.000000 0.000000 0.000000 -90.000000 0.000000 -2.309062 0.000000 0.000000 2.309062 0.000000 0.000000 -0.000000 0.000000 0.000000 -0.000000 90.000000 0.000000 -2.309062 0.000000 0.000000 2.309062 0.000000 0.000000 8.520406 0.000000 0.000000 1.905762 0.000000 -0.000000 -4.658285 0.000000 0.000000 -0.000000 0.000000 0.000000 8.520406 0.000000 0.000000 1.905762 0.000000 -0.000000 -4.658285 0.000000 0.000000 -0.000000 0.000000
-60.811066 57.788215 11.503023 176.299426 -48.237566 -3.146167 3.362381 20.766730 2.875718 1.718978 11.895856 1.483752 2.238310 14.865695 1.931296 1.705227 11.895581 1.484365 -4.081234 19.342613 2.672062 -8.145648 0.439694 6.122375 3.483715 5.323530 1.736579 -18.967801 -30.508270 -5.876251 -65.396503 -54.095921 84.926277 -1.070155 -6.939777 -15.422795 -7.588226 2.463503 2.481805 7.837610 -29.377939 3.889551 52.959534 -61.809454 -64.070469 2.810493 -6.737022 3.160592 6.279235 -23.583485 -1.460494 -33.154617 75.064762 -37.024145 7.465492 -17.180738 12.881674 0.000514 -0.081239 0.007173 -6.924897 -20.445598 6.513882 88.350611 80.610558 88.664630 1.234784 -21.983860 -19.796512 0.023500 0.059441 -0.002044
-60.809077 57.789582 11.499457 176.292044 -48.245911 -3.152068 3.369597 20.774939 2.885161 1.704078 11.889124 1.478029 2.208210 14.863766 1.922305 1.717354 11.897218 1.483617 -3.939711 19.366303 2.686569 -7.961436 0.469617 6.115635 3.493008 5.247625 1.722451 -18.881227 -30.555795 -5.979965 -65.832657 -55.354712 86.008258 -0.080533 -6.136337 -15.318360 -7.560937 2.371161 2.503824 7.602303 -29.325694 4.047267 52.731983 -63.217998 -63.982527 1.521124 -6.309519 3.025969 6.272256 -23.576435 -1.449715 -33.137426 75.070160 -37.010095 7.473268 -17.180309 12.883507 0.005757 -0.084037 0.001195 -6.913174 -20.432957 6.512048 88.383066 80.622369 88.723460 1.253628 -21.995396 -19.809279 0.027580 0.056850 -0.002121
-60.807997 57.790409 11.495443 176.282714 -48.255551 -3.149321 3.366965 20.778345 2.882749 1.705435 11.890272 1.477642 2.193792 14.855491 1.916542 1.727554 11.906157 1.485215 -3.818401 19.395975 2.711144 -7.783025 0.522405 6.117391 3.508675 5.143909 1.710760 -18.685882 -30.569010 -6.135357 -66.456272 -56.580346 87.126302 0.928289 -5.320349 -15.241314 -7.557067 2.278627 2.509609 7.311983 -29.313422 4.232344 52.244444 -64.643604 -63.627891 0.408637 -5.939618 2.858572 6.266143 -23.571654 -1.449255 -33.137232 75.080918 -37.009056 7.482325 -17.177416 12.879804 0.005119 -0.091745 -0.005100 -6.905406 -20.422167 6.513837 88.401680 80.625240 88.746954 1.254610 -21.995627 -19.805956 0.026593 0.051565 -0.003793
-60.807761 57.790727 11.490993 176.267633 -48.268738 -3.134903 3.344081 20.762594 2.853731 1.726907 11.912753 1.487915 2.187300 14.849211 1.912855 1.732127 11.912759 1.486611 -3.725020 19.427940 2.730550 -7.591233 0.600019 6.121784 3.580446 4.928775 1.685838 -18.408215 -30.478460 -6.372371 -67.185722 -57.756580 88.222559 1.948394 -4.515728 -15.198456 -7.556778 2.176211 2.502742 7.002584 -29.321286 4.430096 51.425748 -66.072066 -62.965625 -0.496821 -5.619522 2.658532 6.252659 -23.568132 -1.458429 -33.121725 75.099265 -37.003904 7.501253 -17.170767 12.876020 -0.002797 -0.105551 -0.014720 -6.878720 -20.408786 6.503273 88.403302 80.627776 88.763780 1.254085 -21.996714 -19.802365 0.026188 0.046918 -0.004637
-60.806548 57.790985 11.486077 176.259870 -48.289079 -3.129091 3.346578 20.777613 2.851870 1.711955 11.897747 1.479725 2.201318 14.864586 1.917282 1.685334 11.871390 1.467892 -3.597858 19.500840 2.755976 -7.410611 0.686560 6.129642 3.701479 4.796572 1.683975 -18.012872 -30.438542 -6.664499 -67.986484 -58.851535 89.269264 3.027158 -3.737238 -15.182174 -7.522653 2.105244 2.488121 6.670326 -29.344858 4.644088 50.330291 -67.466360 -62.030691 -1.203610 -5.331095 2.419184 6.243558 -23.552589 -1.463646 -33.125450 75.109978 -37.006611 7.515581 -17.167508 12.869980 0.006915 -0.112418 -0.018288 -6.853219 -20.389597 6.495071 88.436848 80.630783 88.817160 1.252951 -22.000673 -19.800213 0.025401 0.041419 -0.004785
-60.804200 57.791709 11.480436 176.257997 -48.320879 -3.131602 3.338331 20.785987 2.849268 1.694971 11.871309 1.467307 2.208444 14.888939 1.918001 1.688154 11.873962 1.464559 -3.505323 19.548381 2.780227 -7.245948 0.769040 6.142556 3.791222 4.671269 1.682890 -17.495134 -30.432329 -7.007297 -68.824279 -59.855319 90.243407 4.184765 -2.986348 -15.191413 -7.521253 2.005699 2.462419 6.305597 -29.383466 4.879852 49.071528 -68.747548 -60.931242 -1.778391 -5.071139 2.174796 6.227290 -23.525599 -1.465540 -33.163102 75.126555 -37.031774 7.531440 -17.176129 12.845616 0.005122 -0.113323 -0.014352 -6.832489 -20.358850 6.491946 88.514501 80.628783 88.914812 1.245460 -22.009916 -19.801252 0.025870 0.035324 -0.003667
-60.802359 57.791082 11.475714 176.254659 -48.349551 -3.128006 3.330817 20.788489 2.841361 1.697839 11.878350 1.467599 2.198191 14.884127 1.910920 1.698261 11.887431 1.466910 -3.427528 19.579485 2.802138 -7.099590 0.839204 6.162471 3.873582 4.539600 1.677939 -16.873376 -30.432809 -7.398403 -69.657821 -60.879639 91.120966 5.297353 -2.265478 -15.215557 -7.532282 1.895630 2.425803 5.909674 -29.439157 5.135399 47.783660 -69.847978 -59.816345 -2.297157 -4.828796 1.960118 6.211201 -23.499476 -1.470860 -33.128477 75.138260 -37.004054 7.550591 -17.172982 12.847364 -0.002055 -0.112057 -0.015823 -6.807977 -20.332619 6.485298 88.541440 80.628748 88.961341 1.238006 -22.011456 -19.799649 0.027551 0.029516 -0.004606
